<svg width="653" height="153" viewBox="0 0 653 153" fill="none" xmlns="http://www.w3.org/2000/svg">
<path d="M194.919 38.26C187.609 38.2532 180.477 40.5176 174.509 44.74V0H159.439V106.6H174.509V102.72C179.067 105.927 184.317 108.015 189.832 108.814C195.348 109.613 200.974 109.1 206.255 107.318C211.535 105.536 216.321 102.534 220.225 98.5567C224.128 94.5789 227.039 89.7371 228.721 84.424C230.404 79.1108 230.81 73.476 229.907 67.9764C229.005 62.4769 226.818 57.2676 223.526 52.771C220.233 48.2744 215.928 44.6172 210.957 42.096C205.987 39.5748 200.493 38.2606 194.919 38.26ZM194.919 94.13C190.884 94.132 186.939 92.9372 183.583 90.6968C180.227 88.4565 177.611 85.2711 176.065 81.5437C174.52 77.8162 174.114 73.7142 174.9 69.7563C175.686 65.7984 177.628 62.1626 180.481 59.3086C183.334 56.4546 186.968 54.5107 190.926 53.7227C194.883 52.9348 198.986 53.3382 202.714 54.8819C206.442 56.4256 209.629 59.0403 211.871 62.3953C214.113 65.7503 215.309 69.6948 215.309 73.73C215.304 79.1371 213.155 84.3213 209.332 88.1456C205.51 91.9699 200.327 94.1221 194.919 94.13Z" fill="white"/>
<path d="M490.369 73.2001C490.256 65.2709 487.49 57.6081 482.514 51.4336C477.538 45.2591 470.638 40.9284 462.914 39.1322C455.19 37.336 447.087 38.1776 439.898 41.5228C432.708 44.8681 426.845 50.5243 423.244 57.5897C419.643 64.655 418.512 72.7226 420.03 80.5059C421.548 88.2892 425.628 95.3402 431.621 100.534C437.613 105.728 445.171 108.767 453.092 109.165C461.012 109.563 468.837 107.297 475.319 102.73V117.14C475.38 119.856 474.897 122.557 473.899 125.084C472.901 127.612 471.408 129.914 469.508 131.856C467.608 133.799 465.34 135.342 462.835 136.395C460.331 137.449 457.641 137.992 454.924 137.992C452.207 137.992 449.518 137.449 447.014 136.395C444.509 135.342 442.24 133.799 440.341 131.856C438.441 129.914 436.948 127.612 435.95 125.084C434.952 122.557 434.469 119.856 434.529 117.14H419.449C419.449 126.547 423.186 135.569 429.838 142.221C436.49 148.873 445.512 152.61 454.919 152.61C464.327 152.61 473.349 148.873 480.001 142.221C486.652 135.569 490.389 126.547 490.389 117.14V73.2001H490.369ZM454.919 94.1301C450.884 94.1321 446.939 92.9374 443.583 90.697C440.227 88.4566 437.611 85.2712 436.065 81.5438C434.52 77.8164 434.114 73.7143 434.9 69.7564C435.686 65.7986 437.628 62.1627 440.481 59.3087C443.334 56.4547 446.968 54.5108 450.926 53.7228C454.883 52.9349 458.986 53.3383 462.714 54.882C466.442 56.4258 469.629 59.0405 471.871 62.3955C474.113 65.7504 475.309 69.695 475.309 73.7301C475.304 79.1372 473.155 84.3214 469.332 88.1457C465.51 91.97 460.327 94.1222 454.919 94.1301Z" fill="white"/>
<path d="M594.56 17.21H579.49V83.78H594.56V17.21Z" fill="white"/>
<path d="M594.56 91.98H579.49V106.6H594.56V91.98Z" fill="white"/>
<path d="M316.999 74.7701C316.999 74.4301 316.999 74.0801 316.999 73.7701C317.01 65.8097 314.347 58.0763 309.438 51.8101C304.528 45.5438 297.657 41.1078 289.925 39.2133C282.194 37.3188 274.05 38.0756 266.799 41.3624C259.549 44.6492 253.613 50.2755 249.942 57.3391C246.272 64.4027 245.079 72.4944 246.557 80.3165C248.034 88.1386 252.096 95.238 258.09 100.476C264.084 105.714 271.663 108.788 279.613 109.204C287.562 109.62 295.421 107.354 301.929 102.77V106.64H317.009V74.7701H316.999ZM281.599 94.1301C277.565 94.1301 273.621 92.9337 270.266 90.6921C266.911 88.4505 264.296 85.2645 262.752 81.5369C261.208 77.8093 260.804 73.7075 261.591 69.7503C262.379 65.7931 264.321 62.1582 267.174 59.3052C270.027 56.4522 273.662 54.5093 277.62 53.7221C281.577 52.935 285.679 53.339 289.406 54.883C293.134 56.427 296.32 59.0417 298.561 62.3965C300.803 65.7513 301.999 69.6954 301.999 73.7301C301.994 79.1389 299.843 84.3247 296.019 88.1493C292.194 91.9739 287.008 94.1248 281.599 94.1301Z" fill="white"/>
<path d="M530.36 58C534.014 54.9715 538.614 53.3191 543.36 53.33H559.4V38.26H543.32C536.012 38.2533 528.884 40.5178 522.92 44.74V0H507.85V106.6H522.92V102.73C523.38 103.05 523.84 103.36 524.31 103.65C525.486 104.388 526.705 105.056 527.96 105.65C529.745 106.512 531.602 107.218 533.51 107.76C534.09 107.93 534.67 108.08 535.26 108.22C537.905 108.839 540.613 109.154 543.33 109.16H559.4V94.13H543.32C539.113 94.1437 535.005 92.8554 531.56 90.442C528.115 88.0285 525.501 84.6081 524.077 80.65C522.653 76.6919 522.488 72.3902 523.606 68.3349C524.724 64.2796 527.069 60.6695 530.32 58H530.36Z" fill="white"/>
<path d="M652.5 53.77V39.15H632.11V17.21H617V74.21C617.131 83.5296 620.922 92.4237 627.555 98.9721C634.188 105.52 643.129 109.198 652.45 109.21V94.13C647.043 94.122 641.86 91.9699 638.037 88.1456C634.215 84.3213 632.065 79.137 632.06 73.73V53.73L652.5 53.77Z" fill="white"/>
<path d="M406.28 73.73C406.286 67.1534 404.462 60.7049 401.012 55.1059C397.562 49.5069 392.622 44.9784 386.745 42.0269C380.868 39.0754 374.286 37.8174 367.734 38.3937C361.183 38.97 354.921 41.3578 349.65 45.29H335.34V106.6H350.42V73.73C350.36 71.0137 350.843 68.3127 351.841 65.7857C352.839 63.2586 354.331 60.9563 356.231 59.014C358.131 57.0716 360.4 55.5283 362.904 54.4747C365.408 53.4211 368.098 52.8784 370.815 52.8784C373.532 52.8784 376.221 53.4211 378.726 54.4747C381.23 55.5283 383.499 57.0716 385.399 59.014C387.298 60.9563 388.791 63.2586 389.789 65.7857C390.787 68.3127 391.27 71.0137 391.21 73.73V106.6H406.29V73.73H406.28Z" fill="white"/>
<path d="M53.1406 53.4502C67.232 53.4634 80.7427 59.0657 90.7087 69.0279C100.675 78.9902 106.282 92.4988 106.301 106.59H83.7106C83.708 98.4815 80.487 90.7054 74.7552 84.9698C69.0233 79.2342 61.2493 76.0081 53.1406 76.0002V53.4502Z" fill="white"/>
<path d="M0 76.0002V53.4502C14.0914 53.4661 27.6011 59.0709 37.5652 69.035C47.5293 78.9991 53.1341 92.5088 53.15 106.6H30.57C30.57 98.4898 27.3502 90.7111 21.6181 84.9733C15.886 79.2356 8.11043 76.0081 0 76.0002Z" fill="white"/>
<path d="M53.15 53.45H30.57C30.5621 45.3448 27.3387 37.5738 21.6075 31.8426C15.8762 26.1113 8.10523 22.888 0 22.88L0 0.290039C14.0931 0.305924 27.6043 5.91211 37.5687 15.8784C47.5331 25.8447 53.1368 39.3569 53.15 53.45Z" fill="white"/>
<path d="M106.29 53.45H83.7104C83.7025 45.3465 80.4805 37.5771 74.7514 31.8461C69.0223 26.1151 61.2539 22.8906 53.1504 22.88V0.290039C67.2418 0.308571 80.7504 5.91593 90.7126 15.8819C100.675 25.8479 106.277 39.3587 106.29 53.45Z" fill="white"/>
</svg>
